<?xml version="1.0" encoding="UTF-8"?> <!-- Generator: Adobe Illustrator 23.0.6, SVG Export Plug-In . SVG Version: 6.00 Build 0) --> <svg xmlns="http://www.w3.org/2000/svg" xmlns:xlink="http://www.w3.org/1999/xlink" id="Layer_1" x="0px" y="0px" viewBox="0 0 400 100" style="enable-background:new 0 0 400 100;" xml:space="preserve"> <style type="text/css"> .st0{clip-path:url(#SVGID_2_);fill:url(#SVGID_3_);} </style> <g> <defs> <path id="SVGID_1_" d="M361.27,24.23l-11.79-9.4h11.79V24.23z M399.68,55.18c0,8.43-1.06,13.66-5.23,18 c-2.84,3.01-7.54,5.68-14.37,5.68c-6.83,0-11.44-2.66-14.27-5.68c-2.66-2.77-3.97-6-4.63-10.08v15.23h-11.53V42.11l-2.58,2.61 c-1.77-1.77-3.28-2.75-6.12-2.75c-3.55,0-7.45,2.66-7.45,8.51v27.85h-11.53V58.81h-28.35c0,5.94,3.64,10.29,10.11,10.29 c5.05,0,7.53-1.42,10.46-4.35l7,6.83c-4.7,4.7-9.22,7.27-17.56,7.27c-10.13,0-19.77-4.43-21.1-20.04h-27.61 c0,5.94,3.64,10.29,10.11,10.29c5.05,0,7.53-1.42,10.46-4.35l7,6.83c-4.7,4.7-9.22,7.27-17.56,7.27c-7.5,0-14.7-2.48-18.53-10.02 v9.49h-6.3c-7.05,0-11.06-3.74-12.62-8.38c-2.81,5.99-9.85,8.91-18.25,8.91c-7.27,0-13.83-0.8-19.69-6.65l7.54-7.54 c3.81,3.82,8.78,4.35,12.33,4.35c3.99,0,8.16-1.33,8.16-4.79c0-2.31-1.24-3.9-4.88-4.26l-7.27-0.71c-4.8-0.46-8.5-1.91-10.8-4.64 l-11.48,31.15c-0.97,2.57-2.04,4.52-3.46,5.94c-2.66,2.66-6.12,3.55-9.93,3.55h-4.52V84.88h2.66c3.28,0,4.61-0.8,5.77-4.17 l1.95-5.68l-11.14-30.28c0.23,1.3,0.36,2.63,0.36,4.03v29.53h-11.53V50.39c0-6.3-3.99-8.43-7.62-8.43c-3.55,0-7.71,2.13-7.71,8.16 v28.2h-11.53V50.39c0-6.3-3.99-8.43-7.63-8.43c-3.64,0-7.71,2.13-7.71,8.43v27.93H99.59v-46.2h11.26v4.26 c3.02-3.1,7.27-4.79,11.53-4.79c5.14,0,9.31,1.86,12.23,5.85c3.9-4.08,8.07-5.85,13.83-5.85c4.61,0,8.78,1.51,11.35,4.08 c1.07,1.07,1.89,2.2,2.59,3.37l-2.54-6.91h12.15l9.58,28.55l9.22-28.55h12.15l-0.2,0.54c2.2-0.7,4.59-1.07,7.06-1.07 c4.55,0,8.56,0.6,12.07,2.03v-0.17h4.88v-9.22l11.53-4.43v13.65h8.16v8.49c3.36-6.68,9.49-10.35,17.29-10.35 c10.7,0,17.45,6.55,19.45,16.04c2.33-10.28,9.47-16.04,19.25-16.04c10.89,0,17.71,6.77,19.57,16.54V32.12h11.26v4.43 c2.22-2.66,6.65-4.96,11.62-4.96c1.79,0,3.34,0.25,4.79,0.67v-0.13h11.53v15.2c0.66-4.06,1.97-7.29,4.63-10.06 c2.84-3.02,7.45-5.68,14.27-5.68c6.83,0,11.53,2.66,14.37,5.68C398.62,41.61,399.68,46.84,399.68,55.18z M226.75,56.51V42.23 h-4.47l-1.93,1.95c-2.66-2.39-6.74-3.1-10.73-3.1c-4.61,0-6.56,2.13-6.56,4.43c0,1.69,0.71,3.64,4.79,3.99l7.27,0.71 C220.86,50.77,224.6,53.06,226.75,56.51z M246.3,68.57c-1.66-3.4-2.71-7.69-2.71-13.39c0-5.12,1.01-9.42,2.72-12.95h-8.03V64.4 c0,2.66,1.24,4.17,3.99,4.17H246.3z M272.5,50.92c-0.09-2.04-0.35-3.28-1.07-4.96c-1.24-2.75-3.81-4.79-7.71-4.79 s-6.47,2.04-7.72,4.79c-0.71,1.68-0.97,2.92-1.06,4.96H272.5z M311.19,50.92c-0.09-2.04-0.35-3.28-1.07-4.96 c-1.24-2.75-3.81-4.79-7.71-4.79s-6.47,2.04-7.71,4.79c-0.71,1.68-0.97,2.92-1.07,4.96H311.19z M388.15,55.18 c0-4.79-0.27-8.78-2.66-11.17c-1.33-1.33-3.1-2.04-5.41-2.04c-2.3,0-3.99,0.71-5.32,2.04c-2.39,2.4-2.66,6.39-2.66,11.17 c0,4.79,0.27,8.87,2.66,11.26c1.33,1.33,3.01,2.04,5.32,2.04c2.31,0,4.08-0.71,5.41-2.04C387.89,64.04,388.15,59.97,388.15,55.18z M1.06,18.79c3,17.35,11.15,31.84,24.31,43.49c9.17,8.12,19.8,13.52,31.71,16.42c1.21,0.29,2.11,0.12,3.13-0.58 c5.68-3.9,10.19-8.84,13.46-14.89c0.26-0.48,0.53-1.05,0.53-1.58c-0.01-6.93,0.2-13.88-0.18-20.79 C73.2,25.83,63.05,12.88,48.68,8.22c-2.71-0.88-5.58-1.27-8.38-1.89c-13.43,0-26.87,0-40.3,0c0,1.57,0,3.14,0,4.71 C0.35,13.63,0.62,16.22,1.06,18.79z M48.59,30.65c4.13,1.45,7.88,3.5,10.66,7.01c2,2.53,3.09,5.43,3.35,8.64 c0.1,1.21-0.48,1.88-1.64,1.87c-6.7-0.07-13.43,0.49-20.06-0.98c-5.25-1.17-10.2-2.97-14.14-6.85c-2.82-2.77-4.3-6.19-4.71-10.09 c-0.13-1.28,0.46-1.91,1.84-1.93c2.18-0.02,4.36-0.01,7.43-0.01C36.61,28.09,42.71,28.59,48.59,30.65z M47.27,80.66 c0.01-0.07,0.02-0.15,0.03-0.22c-1.59-0.66-3.2-1.27-4.76-1.99C22.47,69.28,8.44,54.41,0.49,33.82c-0.14-0.36-0.32-0.7-0.49-1.05 C0,48.73,0,64.7,0,80.66C15.76,80.66,31.51,80.66,47.27,80.66z M56.01,6.34c0.17,0.13,0.32,0.29,0.5,0.38 c7.46,4.01,13.19,9.75,17.24,17.18c0.08,0.15,0.23,0.27,0.49,0.58c0-1.65-0.01-3.04,0-4.43c0.03-4.57,0.06-9.15,0.08-13.72 C68.22,6.34,62.11,6.34,56.01,6.34z"></path> </defs> <clipPath id="SVGID_2_"> <use xlink:href="#SVGID_1_" style="overflow:visible;"></use> </clipPath> <linearGradient id="SVGID_3_" gradientUnits="userSpaceOnUse" x1="-16.5155" y1="-77.4925" x2="419.0228" y2="173.9656"> <stop offset="0.5698" style="stop-color:#7F3F98"></stop> <stop offset="1" style="stop-color:#EC008C"></stop> </linearGradient> <rect x="-45.77" y="-26.82" class="st0" width="494.05" height="150.11"></rect> </g> </svg> 